<svg width="1900" height="1900" viewBox="0 0 1900 1900" fill="none" xmlns="http://www.w3.org/2000/svg">
<g clip-path="url(#clip0_176_7)">
<path d="M1198.74 223.347L1037.24 312.805L949.997 262.376L356.247 606.039V606.514L949.997 950.255V1638.21L1543.75 1294.39V910.672L1702.08 818.047V1385.67L949.997 1821.09L197.914 1385.67V514.839L949.997 79.4219L1198.74 223.347ZM1466.88 183.843C1469.85 176.382 1474.99 169.984 1481.64 165.477C1488.29 160.969 1496.13 158.56 1504.16 158.56C1512.2 158.56 1520.04 160.969 1526.69 165.477C1533.34 169.984 1538.48 176.382 1541.45 183.843L1561.48 232.293C1595.1 314.206 1658.85 380.11 1739.61 416.434L1796.45 441.768C1803.71 445.131 1809.87 450.503 1814.18 457.251C1818.49 463.998 1820.79 471.839 1820.79 479.847C1820.79 487.855 1818.49 495.696 1814.18 502.443C1809.87 509.191 1803.71 514.563 1796.45 517.926L1736.28 544.684C1657.54 580.019 1594.89 643.57 1560.69 722.809L1541.13 767.618C1538.09 774.914 1532.96 781.147 1526.38 785.531C1519.8 789.915 1512.07 792.254 1504.16 792.254C1496.26 792.254 1488.53 789.915 1481.95 785.531C1475.37 781.147 1470.24 774.914 1467.19 767.618L1447.72 722.889C1413.49 643.591 1350.78 580.006 1271.97 544.684L1211.8 517.926C1204.51 514.573 1198.34 509.199 1194.01 502.443C1189.68 495.687 1187.38 487.831 1187.38 479.807C1187.38 471.783 1189.68 463.927 1194.01 457.171C1198.34 450.415 1204.51 445.042 1211.8 441.689L1268.64 416.355C1349.41 380.067 1413.19 314.191 1446.85 232.293L1466.88 183.843Z" fill="#C9E975"/>
</g>
<defs>
<clipPath id="clip0_176_7">
<rect width="1900" height="1900" fill="white"/>
</clipPath>
</defs>
</svg>
