<svg width="1900" height="1900" viewBox="0 0 1900 1900" fill="none" xmlns="http://www.w3.org/2000/svg">
<g clip-path="url(#clip0_176_10)">
<path d="M1198.74 223.347L1037.24 312.805L949.997 262.376L356.247 606.039V606.514L949.997 950.255V1638.21L1543.75 1294.39V910.672L1702.08 818.047V1385.67L949.997 1821.09L197.914 1385.67V514.839L949.997 79.4219L1198.74 223.347Z" fill="#C9E975"/>
<path d="M1481.64 165.475C1474.99 169.983 1469.85 176.38 1466.88 183.841L1446.85 232.291C1413.19 314.19 1349.41 380.065 1268.64 416.354L1211.8 441.687C1204.51 445.041 1198.34 450.414 1194.01 457.17C1189.68 463.926 1187.38 471.782 1187.38 479.806C1187.38 487.83 1189.68 495.686 1194.01 502.442C1198.34 509.198 1204.51 514.571 1211.8 517.925L1271.97 544.683C1350.78 580.004 1413.49 643.59 1447.72 722.887L1467.19 767.616C1470.24 774.913 1475.37 781.146 1481.95 785.53C1488.53 789.914 1496.26 792.253 1504.16 792.253C1512.07 792.253 1519.8 789.914 1526.38 785.53C1532.96 781.146 1538.09 774.913 1541.13 767.616L1560.69 722.808C1594.89 643.569 1657.54 580.017 1736.28 544.683L1796.45 517.925C1803.71 514.562 1809.87 509.189 1814.18 502.442C1818.49 495.694 1820.78 487.854 1820.78 479.846C1820.78 471.838 1818.49 463.997 1814.18 457.249C1809.87 450.502 1803.71 445.129 1796.45 441.766L1739.6 416.433C1658.85 380.109 1595.1 314.205 1561.48 232.291L1541.45 183.841C1538.48 176.38 1533.34 169.983 1526.69 165.475C1520.04 160.968 1512.19 158.559 1504.16 158.559C1496.13 158.559 1488.29 160.968 1481.64 165.475Z" fill="#211548"/>
</g>
<defs>
<clipPath id="clip0_176_10">
<rect width="1900" height="1900" fill="white"/>
</clipPath>
</defs>
</svg>
